<svg xmlns="http://www.w3.org/2000/svg" width="512" height="512" viewBox="0 0 512 512"><defs><linearGradient id="bg" x1="0%" x2="100%" y1="0%" y2="100%"><stop offset="0%" style="stop-color:#22c55e"/><stop offset="100%" style="stop-color:#16a34a"/></linearGradient><linearGradient id="shine" x1="0%" x2="100%" y1="0%" y2="100%"><stop offset="0%" style="stop-color:rgba(255,255,255,.15)"/><stop offset="50%" style="stop-color:transparent"/></linearGradient><filter id="shadow" width="120%" height="120%" x="-10%" y="-10%"><feDropShadow dx="0" dy="4" flood-color="rgba(0,0,0,0.15)" stdDeviation="8"/></filter></defs><rect width="512" height="512" fill="url(#bg)" rx="108"/><rect width="512" height="512" fill="url(#shine)" rx="108"/><ellipse cx="256" cy="345" fill="rgba(255,255,255,0.15)" rx="128" ry="38"/><ellipse cx="256" cy="335" fill="rgba(255,255,255,0.25)" rx="112" ry="32"/><g fill="#fff" filter="url(#shadow)" transform="translate(256,205)"><g transform="translate(-52,0)"><rect width="10" height="128" x="-5" y="-64" rx="5"/><rect width="8" height="42" x="-20" y="-64" rx="4"/><rect width="8" height="42" x="12" y="-64" rx="4"/></g><g transform="translate(52,0)"><rect width="10" height="128" x="-5" y="-64" rx="5"/><path fill="rgba(255,255,255,0.9)" d="M5,-64 Q28,-52 28,-20 Q28,0 5,0 Z"/></g></g><g fill="none" stroke="rgba(255,255,255,0.45)" stroke-linecap="round" stroke-width="4"><path d="M210,108 Q205,85 215,62"/><path d="M256,96 Q251,73 261,50"/><path d="M302,108 Q297,85 307,62"/></g><text x="256" y="448" fill="#fff" font-family="Arial, Helvetica, sans-serif" font-size="56" font-weight="800" letter-spacing="8" opacity=".95" text-anchor="middle">KANGAL</text></svg>