<svg xmlns="http://www.w3.org/2000/svg" width="192" height="192" viewBox="0 0 192 192"><defs><linearGradient id="bg" x1="0%" x2="100%" y1="0%" y2="100%"><stop offset="0%" style="stop-color:#22c55e"/><stop offset="100%" style="stop-color:#16a34a"/></linearGradient><linearGradient id="shine" x1="0%" x2="100%" y1="0%" y2="100%"><stop offset="0%" style="stop-color:rgba(255,255,255,.2)"/><stop offset="50%" style="stop-color:transparent"/></linearGradient></defs><rect width="192" height="192" fill="url(#bg)" rx="40"/><rect width="192" height="192" fill="url(#shine)" rx="40"/><ellipse cx="96" cy="130" fill="rgba(255,255,255,0.2)" rx="48" ry="14"/><ellipse cx="96" cy="126" fill="rgba(255,255,255,0.3)" rx="42" ry="12"/><g fill="#fff"><g transform="translate(96,78) translate(-20,0)"><rect width="4" height="48" x="-2" y="-24" rx="2"/><rect width="4" height="16" x="-8" y="-24" rx="2"/><rect width="4" height="16" x="4" y="-24" rx="2"/></g><g transform="translate(96,78) translate(20,0)"><rect width="4" height="48" x="-2" y="-24" rx="2"/><path fill="rgba(255,255,255,0.9)" d="M2,-24 Q10,-20 10,-8 Q10,0 2,0 Z"/></g></g><g fill="none" stroke="rgba(255,255,255,0.5)" stroke-linecap="round" stroke-width="2"><path d="M80,40 Q78,32 82,24"/><path d="M96,36 Q94,28 98,20"/><path d="M112,40 Q110,32 114,24"/></g><text x="96" y="170" fill="#fff" font-family="Arial, Helvetica, sans-serif" font-size="22" font-weight="800" letter-spacing="3" opacity=".95" text-anchor="middle">KANGAL</text></svg>