<svg xmlns="http://www.w3.org/2000/svg" viewBox="0 0 980 980" fill="none" shape-rendering="auto"><metadata xmlns:rdf="http://www.w3.org/1999/02/22-rdf-syntax-ns#" xmlns:xsi="http://www.w3.org/2001/XMLSchema-instance" xmlns:dc="http://purl.org/dc/elements/1.1/" xmlns:dcterms="http://purl.org/dc/terms/"><rdf:RDF><rdf:Description><dc:title>Lorelei</dc:title><dc:creator>Lisa Wischofsky</dc:creator><dc:source xsi:type="dcterms:URI">https://www.figma.com/community/file/1198749693280469639</dc:source><dcterms:license xsi:type="dcterms:URI">https://creativecommons.org/publicdomain/zero/1.0/</dcterms:license><dc:rights>Remix of „Lorelei” (https://www.figma.com/community/file/1198749693280469639) by „Lisa Wischofsky”, licensed under „CC0 1.0” (https://creativecommons.org/publicdomain/zero/1.0/)</dc:rights></rdf:Description></rdf:RDF></metadata><mask id="viewboxMask"><rect width="980" height="980" rx="0" ry="0" x="0" y="0" fill="#fff" /></mask><g mask="url(#viewboxMask)"><g transform="translate(10 -60)"><path d="m614 167 8 5c1 1 2 2 1 4l-6 3-32 14c-14 7-28 16-40 26l18-1c32 0 63 10 90 26 22 14 41 32 53 55 11 20 16 43 14 65l1 5a163 163 0 0 1 17 63c0 13-3 27-9 39-4 9-9 18-16 25-8 6-16 13-26 14-3 0-8-1-9-4-2-2-1-6-1-9l11-56c-8 9-17 17-28 23-4 3-8 3-12 3l-1-5c1-11 0-22-1-33-5-28-14-57-32-79l3 30c0 20-4 41-12 59-6 15-15 29-27 39-3 2-6 4-10 4-2 0-4-1-3-3 3-16 4-32 4-49-10 21-28 36-47 46-6 3-12 6-19 2v-9a293 293 0 0 0 8-79c-8 15-19 29-31 41-13 12-27 23-42 32-9 5-20 11-31 11-5 0-9-1-13-3v-1l3-16c2-12 3-25 2-37l-5 20c-4 10-9 19-16 27l-8 5c-2 0-3 0-3-2l6-12c7-14 11-28 12-44a327 327 0 0 1-39 62l-5 6-1 18-1 17c14 18 24 39 31 61a203 203 0 0 1-12 121c5 16 5 34 0 50-8 23-23 43-41 59-14 12-30 23-47 29-10 4-22 7-33 5-4 0-6-2-9-4 2-3 4-6 4-10 2-6 1-13 0-19-2-13-7-25-14-36l-18-27c-5-9-10-18-12-28l-1-22-4 15c-3 12-3 25-1 37 1 7 4 14 8 20l8 10c-3 1-6-1-9-3-7-4-12-10-15-17a91 91 0 0 1 13-92c8-11 19-19 31-24l17-4c10-3 20-4 31-3-24-28-43-61-55-96a247 247 0 0 1 14-191 226 226 0 0 1 124-106c22-9 45-16 68-19 15-2 32-3 46 1a155 155 0 0 1 115-57c12-1 25 0 36 3ZM664 622c7-1 15 2 21 6 7 5 12 12 17 19l10 18c9 16 15 34 16 53 0 18-4 37-14 52-8 9-16 18-27 23l11 13c2 1 4 4 3 6 0 2-3 2-5 3-13 3-26-1-37-7-14-6-26-17-33-31l10 24c2 4 5 7 4 12-2 0-4 0-6-2-7-4-12-11-16-17-6-10-10-21-12-32-3-16-1-33 3-48l4-17c6-21 15-41 28-58 5-8 13-16 23-17Z" fill="#000000"/><path d="M486 236c57-2 115 18 159 56a209 209 0 0 1 73 190c-1 4-1 8-4 12l-1-3v-33a215 215 0 0 0-172-206 235 235 0 0 0-270 153c-12 37-14 78-6 116 6-2 12-2 17-2 2 1 5 1 6 3s0 3-1 4l-12 4c-14 3-27 8-37 18a63 63 0 0 0-22 45c0 12 3 24 8 35 8 13 19 24 33 31 18 10 41 13 62 7 2-1 4-2 6-1s3 4 4 6l15 30a215 215 0 0 0 72 63c28 15 59 21 90 26 3 1 8 1 10 4 1 2 0 3-2 4l-11 1a231 231 0 0 1-147-62c5 18 8 36 8 54 0 12-2 23-6 34-5 10-11 18-19 26a196 196 0 0 1-60 43c-1-1 1-2 2-3l17-14c13-12 25-23 35-38a93 93 0 0 0 17-65l-4-39-2-10-12-17c-5-10-11-20-13-31a93 93 0 0 1-96-31 81 81 0 0 1-19-51c0-12 3-23 8-34 9-16 23-29 40-36-8-31-8-62-3-93 8-40 26-77 51-108 45-54 115-87 186-88Z" fill="#000"/><path d="M541 252a214 214 0 0 1 172 206v33c-1 5-2 10-1 15-2 2-3 3-3 5-3 18-1 37 1 55 4 29 6 59 2 88-3 28-13 56-30 79-16 21-38 34-62 43-15 6-30 9-45 13-11 2-22 4-32 8 1 2 4 1 6 2 12 1 24-1 36-2-5 8-8 17-9 26-2 10 2 19 9 26 6 7 15 11 24 14 5 2 11 3 17 3 7 9 13 18 14 30 2 12-1 24-8 34-9 14-22 23-37 30-18 9-38 15-57 18a352 352 0 0 1-192-23c-18-10-38-23-48-42-4-7-8-16-6-24 18-10 33-23 47-38 8-8 14-16 19-26 4-11 6-22 6-34 0-18-3-36-8-54a235 235 0 0 0 147 62l11-1c2-1 3-2 2-4-2-3-7-3-10-4-31-5-62-11-90-26-18-10-36-22-50-37-8-8-16-17-22-26l-15-30c-1-2-2-5-4-6s-4 0-6 1a82 82 0 0 1-95-38c-5-11-8-23-8-35 1-17 9-34 22-45 10-10 23-15 37-18l12-4c1-1 2-2 1-4s-4-2-6-3c-5 0-11 0-17 2-8-38-6-79 6-116a236 236 0 0 1 270-153Z" fill="#ffffff"/><path d="m712 506 3 3 1 13 3 45c3 20 5 40 5 60 0 16-1 32-5 47-6 28-20 56-40 76a174 174 0 0 1-88 46c-1 9-4 16-4 25-1 6 2 10 5 15 8 8 18 14 28 19l18 9c-3 3-8 1-12 2-6 0-12-1-17-3-9-3-18-7-24-14-7-7-11-16-9-26 1-9 4-18 9-26-12 1-24 3-36 2-2-1-5 0-6-2 10-4 21-6 32-8 15-4 30-7 45-13 24-9 46-22 62-43 17-23 27-51 30-79 4-29 2-59-2-88-2-18-4-37-1-55 0-2 1-3 3-5ZM262 566c6 0 12 1 15 6 2 3 2 7 1 10-3 8-9 14-11 22-1 4 0 7 3 9 7 5 16 7 24 10l-2 2h-11c-6-1-12-2-17-5-5-4-9-11-7-18 2-9 9-15 12-23-7-4-14-2-20-8 3-4 8-6 13-5Z" fill="#000"/><path d="M669 473c8-1 16 1 22 6 3 3 6 7 6 11 1 5-4 10-9 10-4-1-6-3-8-6l-10-7c9 16 4 38-10 49-7 6-18 8-25 1-6-5-8-12-8-20-2 5-5 9-6 14-1 2-1 4-3 4-2-5-1-11 1-17 6-16 17-30 32-38 5-4 11-6 18-7ZM457 484c27 1 53 18 64 42 2 2 4 6 1 9-3 0-5-4-7-6-4-8-10-14-17-19 2 11 2 21-4 31-5 8-16 13-25 12-7-2-14-5-19-11-6-6-8-16-8-24 0-7 3-13 6-18-14 3-28 9-39 18-3 1-5 3-8 3-4-1-6-4-6-8 0-3 2-6 4-8 8-6 16-12 26-16s21-6 32-5Z" fill="#000000"/><path d="M524 402c7 3 12 9 15 16 4 6 6 12 4 19-1 2-2 5-4 3-3-2-5-6-6-9l-14 2-26 3-39 4c-12 1-24 0-36-1-3 0-7-1-9-3-3-2-2-7 1-8 9-3 20-2 30-4 7-1 14-4 20-6 9-3 17-7 26-9l20-5c5-1 12-4 18-2ZM631 404c11 0 19 6 30 8 6 2 14 1 20 5 2 1 3 4 2 7-2 2-5 2-8 2l-14 1-25 6-23 2-5 18-3 3-2-5c-1-10 0-21 5-30 2-4 4-9 8-12 4-4 10-6 15-5Z" fill="#000000"/><path d="M609 602c1 9-4 16-9 23-4 3-9 6-15 6s-13-3-19-5c-4-2-8-3-11-6l5-4c9-1 17 3 25 4 4 0 7-3 9-6 5-5 9-10 15-12Z" fill="#000000"/><path d="M478 678c3-1 5 0 5 2 0 3-3 6-6 7-3-3-2-7 1-9ZM503 690l36 7 30 2c7 1 13 0 19 2-1 2-3 3-6 4a158 158 0 0 1-74-6c-3-1-7-3-8-6-1-2 1-4 3-3Z" fill="#000000"/><path d="M593 164c7 0 15 1 22 4l9 5c-1 4-4 4-6 6l-33 14c-14 7-28 16-40 26a169 169 0 0 1 139 50 123 123 0 0 1 29 130c-9 26-28 50-52 65-4 3-8 3-13 3l-1-2c2-15 0-29-3-44-4-26-14-50-30-71 4 21 4 43-1 64-4 20-13 42-28 57-4 4-9 9-14 10-2 0-6 1-6-1l2-16c2-11 2-22 2-34a99 99 0 0 1-57 50l-9-2c-1-4 0-8 1-13a309 309 0 0 0 7-75c-10 20-26 37-43 52-11 9-23 18-36 24-8 4-16 8-25 8-5 0-9-1-13-3a168 168 0 0 0 5-55c-1 7-3 15-6 22-3 9-8 17-14 25l-8 6c-2 0-3 1-4-1 1-5 4-9 6-13 7-14 11-29 12-44a273 273 0 0 1-42 67c-2 1-2 3-2 4l-3 42v46c0 4 1 9-1 12-2 2-5 2-8 3-9 2-17-1-25-4s-15-8-21-15c-6-6-11-13-15-21l-7-6a138 138 0 0 1-51-111c0-27 8-53 19-77a254 254 0 0 1 181-131c17-2 36-3 53 1l16-17a151 151 0 0 1 114-40Z" fill="#000000"/></g><g transform="translate(10 -60)"></g></g></svg>